HIERARCHY
ROOT Pelvis
{
	OFFSET 0.000000 0.000000 0.000000
	CHANNELS 6 Xposition Yposition Zposition Xrotation Yrotation Zrotation
	JOINT LeftUpLeg_virtual
	{
		OFFSET 0.000000 0.000000 0.000000
		CHANNELS 3 Xrotation Yrotation Zrotation
		JOINT LeftUpLeg
		{
			OFFSET 18.735201 -5.666702 -4.541200
			CHANNELS 3 Xrotation Yrotation Zrotation
			JOINT LeftLeg
			{
				OFFSET -0.021200 -31.938179 0.493100
				CHANNELS 3 Xrotation Yrotation Zrotation
				JOINT LeftFoot
				{
					OFFSET 0.021200 -31.938179 -4.336299
					CHANNELS 3 Xrotation Yrotation Zrotation
					JOINT LeftToeBase
					{
						OFFSET 0.943001 -26.722000 15.023500
						CHANNELS 3 Xrotation Yrotation Zrotation
						End Site
						{
							OFFSET 0 0 0
						}
					}
				}
			}
		}
	}
	JOINT RightUpLeg_virtual
	{
		OFFSET 0.000000 0.000000 0.000000
		CHANNELS 3 Xrotation Yrotation Zrotation
		JOINT RightUpLeg
		{
			OFFSET -18.735201 -5.666702 -4.541200
			CHANNELS 3 Xrotation Yrotation Zrotation
			JOINT RightLeg
			{
				OFFSET 0.018946 -31.938133 0.493100
				CHANNELS 3 Xrotation Yrotation Zrotation
				JOINT RightFoot
				{
					OFFSET -0.018946 -31.938126 -4.336299
					CHANNELS 3 Xrotation Yrotation Zrotation
					JOINT RightToeBase
					{
						OFFSET -0.943001 -26.722004 15.023500
						CHANNELS 3 Xrotation Yrotation Zrotation
						End Site
						{
							OFFSET 0 0 0
						}
					}
				}
			}
		}
	}
	JOINT Hips_virtual
	{
		OFFSET 0.000000 0.000000 0.000000
		CHANNELS 3 Xrotation Yrotation Zrotation
		JOINT Hips
		{
			OFFSET -0.000000 -0.000000 -0.000000
			CHANNELS 3 Xrotation Yrotation Zrotation
			JOINT Spine
			{
				OFFSET 0.000000 10.199997 -0.299500
				CHANNELS 3 Xrotation Yrotation Zrotation
				JOINT Spine1
				{
					OFFSET 0.000000 11.900002 -1.516600
					CHANNELS 3 Xrotation Yrotation Zrotation
					JOINT Spine2
					{
						OFFSET 0.000000 13.600006 -2.842500
						CHANNELS 3 Xrotation Yrotation Zrotation
						JOINT Neck_virtual
						{
							OFFSET 0.000000 0.000000 0.000000
							CHANNELS 3 Xrotation Yrotation Zrotation
							JOINT Neck
							{
								OFFSET 0.000000 9.624100 -2.890100
								CHANNELS 3 Xrotation Yrotation Zrotation
								JOINT Head
								{
									OFFSET 0.000000 14.068802 -1.351900
									CHANNELS 3 Xrotation Yrotation Zrotation
									End Site
									{
										OFFSET 0 0 0
									}
								}
							}
						}
						JOINT LeftShoulder_virtual
						{
							OFFSET 0.000000 0.000000 0.000000
							CHANNELS 3 Xrotation Yrotation Zrotation
							JOINT LeftShoulder
							{
								OFFSET 15.263000 10.923401 -0.547700
								CHANNELS 3 Xrotation Yrotation Zrotation
								JOINT LeftArm
								{
									OFFSET 25.438599 -2.830597 -13.032500
									CHANNELS 3 Xrotation Yrotation Zrotation
									JOINT LeftForeArm
									{
										OFFSET 29.960503 0.000000 0.000000
										CHANNELS 3 Xrotation Yrotation Zrotation
										JOINT LeftHand
										{
											OFFSET 27.849251 0.000000 0.000000
											CHANNELS 3 Xrotation Yrotation Zrotation
											End Site
											{
												OFFSET 0 0 0
											}
										}
									}
								}
							}
						}
						JOINT RightShoulder_virtual
						{
							OFFSET 0.000000 0.000000 0.000000
							CHANNELS 3 Xrotation Yrotation Zrotation
							JOINT RightShoulder
							{
								OFFSET -15.263000 10.923401 -0.547700
								CHANNELS 3 Xrotation Yrotation Zrotation
								JOINT RightArm
								{
									OFFSET -25.438599 -2.830597 -13.032500
									CHANNELS 3 Xrotation Yrotation Zrotation
									JOINT RightForeArm
									{
										OFFSET -29.960503 0.000000 0.000000
										CHANNELS 3 Xrotation Yrotation Zrotation
										JOINT RightHand
										{
											OFFSET -27.849251 0.000000 0.000000
											CHANNELS 3 Xrotation Yrotation Zrotation
											End Site
											{
												OFFSET 0 0 0
											}
										}
									}
								}
							}
						}
					}
				}
			}
		}
	}
}
MOTION
Frames: 4
Frame Time: 0.03333333
-1.167496 92.847252 6.142912 0.000000 0.000000 0.000000 7.119257 4.949047 -1.802324 -33.231585 12.573527 16.439258 38.915546 -5.503066 1.808140 -10.521888 -6.393415 -6.116444 0.000000 0.000000 0.000000 10.287167 5.004670 7.545474 -15.061134 -5.820651 -5.464086 25.088994 -10.819943 -3.967640 -23.098996 -12.567573 -2.013373 0.000000 0.000000 0.000000 -0.085155 2.910997 0.969977 -12.319800 8.804729 0.824878 5.147808 0.048240 2.935023 1.266737 -0.274572 1.919425 0.000000 0.000000 0.000000 6.971017 0.332941 1.614656 1.414916 -0.336772 0.630412 0.000000 0.000000 0.000000 3.406818 -0.656580 1.087131 1.280942 -10.798412 -5.481083 1.014856 11.297531 -58.677943 0.399294 -21.763597 -7.385922 0.000000 0.000000 0.000000 4.557795 -0.108255 1.763230 2.322580 4.843013 13.132519 13.521113 -4.302488 52.131012 6.732748 21.230402 2.349737 0.000000 0.000000 0.000000 
-1.152767 92.888947 6.146513 0.000000 0.000000 0.000000 7.192999 4.684073 -1.792949 -33.112426 12.526774 16.405267 38.726650 -5.302651 1.702457 -10.622932 -6.138113 -6.137918 0.000000 0.000000 0.000000 10.285021 4.755031 7.510325 -15.095860 -5.881374 -5.538997 25.021621 -10.600256 -3.965836 -23.092398 -12.375166 -1.897344 0.000000 0.000000 0.000000 -0.076125 2.695922 0.958871 -12.027339 8.622704 0.718232 5.161816 -0.001396 2.947675 1.271733 -0.298424 1.922473 0.000000 0.000000 0.000000 6.928797 0.339644 1.632466 1.385447 -0.336076 0.650668 0.000000 0.000000 0.000000 3.430359 -0.685404 1.069300 1.295664 -10.882494 -5.548181 1.133113 11.426901 -58.814356 0.370699 -21.664296 -7.383367 0.000000 0.000000 0.000000 4.575745 -0.145726 1.767705 2.330626 4.693461 13.212659 13.528522 -4.553308 52.035185 6.697215 20.911116 2.320746 0.000000 0.000000 0.000000 
-1.142284 92.937332 6.149665 0.000000 0.000000 0.000000 7.262581 4.396456 -1.785695 -32.995189 12.474619 16.364568 38.528336 -5.088201 1.596294 -10.730580 -5.867894 -6.151374 0.000000 0.000000 0.000000 10.283979 4.490440 7.470917 -15.129197 -5.945252 -5.619746 24.971011 -10.361981 -3.961777 -23.070733 -12.165208 -1.768486 0.000000 0.000000 0.000000 -0.067143 2.470074 0.944659 -11.725453 8.419354 0.593646 5.185035 -0.052076 2.957814 1.280481 -0.321998 1.925222 0.000000 0.000000 0.000000 6.888244 0.346378 1.650637 1.357740 -0.334584 0.670498 0.000000 0.000000 0.000000 3.455380 -0.714005 1.053675 1.314419 -10.959675 -5.608419 1.252246 11.533025 -58.951390 0.349307 -21.581941 -7.383148 0.000000 0.000000 0.000000 4.593961 -0.176669 1.776394 2.338122 4.579325 13.305537 13.463208 -4.832971 51.937131 6.627124 20.588425 2.299511 0.000000 0.000000 0.000000 
-1.134902 92.991051 6.152416 0.000000 0.000000 0.000000 7.327592 4.089830 -1.780374 -32.881217 12.417745 16.318174 38.323143 -4.863172 1.490896 -10.844083 -5.586762 -6.157428 0.000000 0.000000 0.000000 10.284352 4.215308 7.427952 -15.160682 -6.011315 -5.705217 24.939234 -10.109392 -3.956431 -23.033725 -11.940757 -1.630525 0.000000 0.000000 0.000000 -0.057625 2.233385 0.928330 -11.418392 8.197351 0.453981 5.217181 -0.104844 2.965339 1.293024 -0.345968 1.927450 0.000000 0.000000 0.000000 6.850097 0.352446 1.668611 1.332109 -0.332635 0.689464 0.000000 0.000000 0.000000 3.482472 -0.742673 1.039968 1.337350 -11.030554 -5.662843 1.376195 11.611804 -59.085453 0.337649 -21.518313 -7.383703 0.000000 0.000000 0.000000 4.613775 -0.201766 1.788875 2.346710 4.498486 13.408617 13.334337 -5.118532 51.840453 6.530192 20.286497 2.285455 0.000000 0.000000 0.000000 
